<svg width="96" height="46" viewBox="0 0 96 46" fill="none" xmlns="http://www.w3.org/2000/svg">
<path d="M83.2578 42.8478L83.372 30.6261H86.7987V32.111C90.9105 28.9337 93.5696 30.7259 94.9012 32.7965C95.4517 33.6525 95.6007 34.6877 95.614 35.7054L95.708 42.8478H92.0529V35.9024C92.0529 35.5123 91.9719 35.1198 91.758 34.7936C90.2878 32.5524 87.9993 33.441 87.0691 34.8066C86.8564 35.1189 86.7987 35.5033 86.7987 35.8811V42.8478H83.2578Z" fill="#000430" stroke="black" stroke-width="0.228444"/>
<path d="M76.4043 42.9468V30.6108H79.831V42.9468H76.4043Z" fill="#000430" stroke="black" stroke-width="0.228444"/>
<path d="M56.4743 31.102C56.0728 33.523 54.6527 35.9314 52.7465 37.4245C51.4489 38.441 49.9943 38.9344 48.4172 39.2571C45.5935 39.8346 42.4267 38.654 40.3464 36.7534C38.7114 35.2597 36.2504 31.8815 36.2504 31.8815L32.9126 36.1185C36.2736 42.0684 42.0461 46.4013 49.179 45.1032C56.3119 43.8052 61.7672 37.8665 62.1499 31.2011C62.428 26.3574 60.6926 21.3936 56.6761 18.4964C51.046 14.4367 43.6393 14.0418 37.7978 17.8255C33.9585 20.3123 31.9003 24.5579 29.3597 28.2501C29.3597 28.2501 28.622 29.3084 28.2191 28.969C27.6261 28.4694 28.1941 27.3083 28.4981 26.776C29.2386 25.4797 30.1754 24.3114 30.93 23.0246L30.8543 22.9153C29.3114 20.6864 27.7447 18.4232 25.4306 16.9323C22.7586 15.2106 20.246 14.6231 16.7493 14.7163C14.1731 14.785 11.8657 15.4643 9.59287 16.6667L10.9472 7.37561C10.9472 7.37561 23.4093 7.21857 29.6191 7.20167L29.5444 -0.000488281L4.49692 0.00119887L1.31412 24.4487L9.19998 24.8518C9.19998 24.8518 10.8642 22.4292 13.6078 21.8695C14.4576 21.6962 15.8737 21.6796 16.7917 21.8323C17.9396 22.0234 19.3944 22.8169 20.091 23.632C21.085 24.795 21.5513 25.7175 21.9805 27.3706C22.2687 28.4808 22.2956 31.293 22.028 32.3602C21.3558 35.042 20.164 36.7075 18.225 37.6749C17.2147 38.179 15.9097 38.4738 14.4146 38.2854C11.3421 37.8981 9.83418 35.6341 8.53617 32.9384C8.53617 32.9384 2.52433 32.3409 0.752752 32.0695C-0.0694215 38.6631 5.83971 43.9808 11.5653 45.0094C18.4706 46.2503 24.897 45.2774 29.9702 37.6092C34.2362 31.8815 36.152 26.0568 40.6493 22.5415C42.8001 20.8602 44.6375 20.2576 47.2981 20.3608C48.9195 20.4237 49.4329 20.5244 50.6985 21.0281C53.7653 22.2485 55.9412 24.9324 56.4834 28.1635C56.6641 29.2407 56.6618 29.9712 56.4743 31.102Z" fill="#24FEEE"/>
<ellipse cx="78.2318" cy="27.1844" rx="2.056" ry="2.05599" fill="#000430"/>
<path d="M63.8418 42.9467V27.0698H73.7791V29.8111H67.2685V33.6947H72.0658V36.2076H67.2685V42.9467H63.8418Z" fill="#000430" stroke="black" stroke-width="0.228444"/>
</svg>
